<mxfile host="app.diagrams.net" modified="2024-05-26T19:58:56.928Z" agent="Mozilla/5.0 (Windows NT 10.0; Win64; x64) AppleWebKit/537.36 (KHTML, like Gecko) Chrome/125.0.0.0 Safari/537.36" version="24.4.8" etag="jn818EA1Jb_XQzC67mZs" type="github">
  <diagram name="Page-1" id="BfETpawII2eVgSV3zk33">
    <mxGraphModel>
      <root>
        <mxCell id="0" />
        <mxCell id="1" parent="0" />
      </root>
    </mxGraphModel>
  </diagram>
</mxfile>
